<?xml version="1.0" encoding="utf-8"?>
<!-- Generator: Adobe Illustrator 26.3.1, SVG Export Plug-In . SVG Version: 6.00 Build 0)  -->
<svg version="1.1" id="Слой_1" xmlns="http://www.w3.org/2000/svg" xmlns:xlink="http://www.w3.org/1999/xlink" x="0px" y="0px"
	 viewBox="0 0 500 299" style="enable-background:new 0 0 500 299;" xml:space="preserve">
<style type="text/css">
	.st0{fill:none;stroke:#7E7E7E;stroke-width:4;stroke-miterlimit:10;}
</style>
<path class="st0" d="M584,32.3c-21.4-11-43.5-23.9-67.8-26.9c-22.7-2.9-48.2,4.7-60.1,24.2c-7.8,12.8-8.8,28.6-7.8,43.6
	s3.6,30,2,44.9c-1.2,11.3-5.6,23.4-15.5,29c-15,8.6-33.9-0.3-47.3-8c-15.9-9.1-31.6-18.7-47-28.8c-17.3-11.3-39.2-23.6-57.4-13.6
	c-15.3,8.4-19.2,28.5-19.7,46c-0.5,17.5,0,36.7-11,50.2c-13.7,16.8-39.9,17.2-60.2,9.4c-35.2-13.6-60.1-45.5-92.9-64.1
	c-13.2-7.5-29.9-12.7-43.2-5.4c-11.8,6.5-17,21.1-16.8,34.6c0.2,13.5,4.6,26.5,7.4,39.6c3.6,16.7,4.5,33.9,2.8,50.9
	c-1.3,13.5-5.7,28.7-17.9,34.7c-13.1,6.4-28.8-0.8-40.2-9.9s-21.8-20.6-35.9-24.2c-25.4-6.6-43.3,13.1-62.8,25.1"/>
</svg>
