<?xml version="1.0" encoding="utf-8"?>
<!-- Generator: Adobe Illustrator 26.3.1, SVG Export Plug-In . SVG Version: 6.00 Build 0)  -->
<svg version="1.1" id="Слой_1" xmlns="http://www.w3.org/2000/svg" xmlns:xlink="http://www.w3.org/1999/xlink" x="0px" y="0px"
	 viewBox="0 0 700.83 298.96" style="enable-background:new 0 0 700.83 298.96;" xml:space="preserve">
<style type="text/css">
	.st0{fill:none;stroke:#7E7E7E;stroke-width:4;stroke-miterlimit:10;}
</style>
<path class="st0" d="M698.04,32.26c-21.36-11-43.46-23.86-67.76-26.93c-22.66-2.86-48.19,4.72-60.13,24.19
	c-7.85,12.8-8.79,28.64-7.84,43.62s3.57,29.99,1.99,44.92c-1.2,11.33-5.6,23.37-15.49,29.03c-14.99,8.58-33.93-0.34-47.31-8.01
	c-15.94-9.12-31.61-18.71-46.99-28.76C437.16,99,415.28,86.73,397.14,96.74c-15.3,8.44-19.18,28.5-19.71,45.96
	c-0.53,17.47,0.05,36.67-11,50.2c-13.74,16.83-39.94,17.19-60.21,9.37c-35.23-13.59-60.08-45.46-92.89-64.15
	c-13.2-7.52-29.92-12.73-43.22-5.4c-11.8,6.5-16.98,21.12-16.82,34.6c0.16,13.47,4.59,26.47,7.39,39.65
	c3.55,16.7,4.51,33.94,2.82,50.93c-1.34,13.55-5.67,28.7-17.88,34.71c-13.08,6.43-28.78-0.78-40.16-9.89s-21.79-20.6-35.9-24.25
	c-25.41-6.57-43.32,13.08-62.75,25.13"/>
</svg>
