<?xml version="1.0" encoding="utf-8"?>
<!-- Generator: Adobe Illustrator 22.0.0, SVG Export Plug-In . SVG Version: 6.00 Build 0)  -->
<svg version="1.1" xmlns="http://www.w3.org/2000/svg" xmlns:xlink="http://www.w3.org/1999/xlink" x="0px" y="0px"
	 viewBox="0 0 595.3 841.9" style="enable-background:new 0 0 595.3 841.9;" xml:space="preserve">
<style type="text/css">
	.st0{fill:url(#SVGID_1_);stroke:#FFFFFF;stroke-width:3;stroke-miterlimit:10;}
</style>
<g id="Слой_2">
</g>
<g id="Слой_1">
	<linearGradient id="SVGID_1_" gradientUnits="userSpaceOnUse" x1="1.9255" y1="647.4115" x2="707.9492" y2="239.7885">
		<stop  offset="0" style="stop-color:#12C2E9"/>
		<stop  offset="0.49" style="stop-color:#C471ED"/>
		<stop  offset="1" style="stop-color:#F64F59"/>
	</linearGradient>
	<path class="st0" d="M494.1,755.9c11.2,0,19.5,4.2,24.8,14.5c5,9.8,4.1,19-2,27.6c-6.8,9.5-17.4,11.8-28.2,12.2
		c-14.4,0.5-28.9,0.2-43.3,0.2c-84,0-168.1,0-252.1,0c-8.1,0-16-0.3-23.7-3.5c-12.3-5.2-19.1-15.5-17.6-27.7
		c1.5-12.3,11.8-22.3,25.1-23c13.1-0.7,26.3-0.4,39.5-0.4c40.3,0,80.7,0,121,0c0,0,0,0.1,0,0.1C389.7,756,441.9,756,494.1,755.9z
		 M376.4,318.1c2.6,34.2-12.2,62.6-32.9,88.2c-26.1,32.4-53.4,63.9-80.3,95.7c-14.8,17.6-16.3,35.4-3.6,46.2c12.3,10.5,29.6,7,44-10
		c53.9-63.5,107.6-127.1,161.2-190.9c10.9-13,23.7-24.6,31.9-39.6c7.2-13.2,3.4-28.2-8.1-36.3c-10.9-7.6-25.3-5.1-35.4,6.2
		c-4,4.4-7.7,9-11.8,13.4c-2.8,3-5.3,7.4-10.4,5.8c-4.8-1.5-5.4-6.3-6-10.4c-2.8-20-9.3-38.9-18.9-56.5c-5.4-9.8-3.9-17,3.2-25.2
		c26.9-31.2,53.4-62.8,80-94.3c9.3-11,19-21.8,27.3-33.6c8.3-11.7,6-28.3-3.4-36.1c-11.3-9.3-24.7-8.1-36.5,3.6
		c-3.3,3.3-6.2,7-9.2,10.6c-31.8,37.7-63.6,75.3-95.3,113c-4.7,5.6-9.6,9.8-17.3,5c-25.5-15.7-53.1-24-83-26
		c-12-0.8-13.2-5.2-5.4-14.5c14.6-17.7,29.5-35.1,44.4-52.6c3.9-4.6,7.3-9.3,9.2-15.1c3.6-11.2,0-23.7-8.8-29.7
		c-8.9-6-23.7-5.2-32,2.3c-4.7,4.3-8.9,9.1-13,14c-39.8,47-78.7,94.8-119.5,141c-30.8,34.8-48.6,74.3-52.4,120.3
		c-1.6,19.2,7.9,33,23.9,34.4c16.9,1.5,27-9,28.2-30c1.1-20.7,6.5-40.2,16.5-58.4c30.2-54.9,100.1-76.7,152.8-47.8
		c12,6.6,12.6,8.8,4,19c-15.8,18.9-31.9,37.5-47.8,56.4c-12.6,14.9-25.6,29.6-37.5,45.1c-9,11.8-7,26.9,3.1,35.8
		c11.1,9.7,23.1,9.1,35.3-2.1c5-4.6,9.3-9.9,13.7-15c21.8-25.5,43.4-51.2,65.4-76.6c9.1-10.5,13.3-9.6,18.7,3
		C376.2,289.6,376.5,303.6,376.4,318.1z M237.8,595.9c-0.8-10.4-6-19.9-17.5-24.1c-11-4-21-1-28.7,8c-16.3,19-32.4,38.1-48.6,57.3
		c-24.4,28.9-48.9,57.5-72.9,86.7c-13.8,16.8-9.5,36.9,9,45.8c10.9,5.3,22,0.9,34.8-14.1c38.2-44.9,76.3-90,114.4-134.9
		C233.9,613.8,237.7,606.5,237.8,595.9z M343.7,668.4c-29.7,0-59.5,0-89.2,0c-7.7,0-15.6-0.1-21.3,6.4c-6.2,7.1-12.2,14.5-7.7,25.1
		c5,12.1,13.3,19.3,27,19.3c59.5-0.1,118.9,0.1,178.4,0c18.6,0,31.2-11.4,30.7-26.8c-0.4-14.8-11.3-23.7-30.1-23.9
		C402.3,668.3,373,668.4,343.7,668.4z"/>
</g>
</svg>
